<svg width="109" height="45" viewBox="0 0 109 45" fill="none" xmlns="http://www.w3.org/2000/svg">
<path d="M42.5083 34.4354C40.7223 34.4354 39.1483 34.0223 37.7864 33.1963C36.4245 32.3702 35.3641 31.2762 34.605 29.9144C33.8682 28.5302 33.4999 27.0008 33.4999 25.3264C33.4999 23.652 33.8906 22.1226 34.672 20.7384C35.4534 19.3319 36.5138 18.2156 37.8534 17.3895C39.2153 16.5635 40.7669 16.1505 42.5083 16.1505C44.2498 16.1505 45.7791 16.5635 47.0963 17.3895C48.4359 18.2156 49.474 19.3319 50.2108 20.7384C50.9699 22.1226 51.3494 23.652 51.3494 25.3264C51.3494 25.572 51.3382 25.8287 51.3159 26.0966C51.2936 26.3646 51.2601 26.6436 51.2154 26.9339H38.1883C38.4339 27.9609 38.925 28.7981 39.6618 29.4455C40.4209 30.093 41.3697 30.4167 42.5083 30.4167C43.4907 30.4167 44.3391 30.1934 45.0535 29.7469C45.7902 29.3004 46.3596 28.7423 46.7614 28.0725L50.2777 30.7181C49.5856 31.8121 48.5475 32.7051 47.1633 33.3972C45.7791 34.0893 44.2274 34.4354 42.5083 34.4354ZM42.4414 20.0352C41.3697 20.0352 40.4544 20.3589 39.6953 21.0063C38.9362 21.6538 38.4339 22.5022 38.1883 23.5515H46.7949C46.5493 22.5915 46.0358 21.7654 45.2544 21.0733C44.4953 20.3812 43.5577 20.0352 42.4414 20.0352ZM61.042 34.4354C59.4569 34.4354 58.0057 34.0335 56.6885 33.2298C55.3936 32.4037 54.3554 31.3097 53.574 29.9479C52.815 28.5636 52.4354 27.0343 52.4354 25.3599C52.4354 24.1096 52.6587 22.9375 53.1052 21.8436C53.5517 20.7273 54.1657 19.7561 54.9471 18.93C55.7285 18.0817 56.6327 17.423 57.6597 16.9542C58.709 16.463 59.8364 16.2174 61.042 16.2174C62.5379 16.2174 63.71 16.4965 64.5584 17.0547C65.4068 17.6128 66.0654 18.3496 66.5342 19.2649V9.55317H71.0552V34H66.6682V31.1535C66.1993 32.1358 65.5295 32.9284 64.6588 33.5312C63.8105 34.134 62.6049 34.4354 61.042 34.4354ZM61.7788 30.3497C62.7835 30.3497 63.643 30.1265 64.3574 29.6799C65.0942 29.2111 65.6635 28.5971 66.0654 27.8381C66.4672 27.079 66.6682 26.2529 66.6682 25.3599C66.6682 24.4445 66.4672 23.6073 66.0654 22.8482C65.6635 22.0891 65.0942 21.4752 64.3574 21.0063C63.643 20.5375 62.7835 20.3031 61.7788 20.3031C60.8188 20.3031 59.9704 20.5375 59.2337 21.0063C58.5192 21.4529 57.9611 22.0557 57.5592 22.8147C57.1573 23.5738 56.9564 24.411 56.9564 25.3264C56.9564 26.1971 57.1573 27.0232 57.5592 27.8046C57.9611 28.5636 58.5192 29.1776 59.2337 29.6465C59.9704 30.1153 60.8188 30.3497 61.7788 30.3497Z" fill="#DD390D"/>
<path d="M9.64478 34.4354C8.39453 34.4354 7.22242 34.2009 6.12845 33.7321C5.05681 33.2632 4.10796 32.6158 3.2819 31.7897C2.45585 30.9414 1.8084 29.9702 1.33955 28.8762C0.893035 27.7599 0.669776 26.5655 0.669776 25.2929C0.669776 23.5961 1.06048 22.0668 1.84188 20.7049C2.64562 19.3207 3.73958 18.2156 5.12379 17.3895C6.53032 16.5635 8.11546 16.1505 9.8792 16.1505C11.4643 16.1281 12.882 16.4072 14.1323 16.9877C15.3825 17.5682 16.376 18.3719 17.1128 19.3989L13.6299 22.2454C13.2281 21.6426 12.7034 21.1626 12.056 20.8054C11.4308 20.4482 10.7276 20.2696 9.94618 20.2696C8.98616 20.2696 8.14894 20.504 7.43452 20.9729C6.72009 21.4194 6.16194 22.0222 5.76008 22.7812C5.38054 23.5403 5.19077 24.3775 5.19077 25.2929C5.19077 26.1859 5.3917 27.0232 5.79356 27.8046C6.21776 28.5636 6.78707 29.1776 7.50149 29.6465C8.23825 30.093 9.08663 30.3162 10.0466 30.3162C10.9174 30.3162 11.6541 30.1265 12.2569 29.7469C12.8597 29.3451 13.3844 28.8427 13.8309 28.2399L17.1128 31.0865C16.2867 32.1358 15.2597 32.9618 14.0318 33.5646C12.8262 34.1451 11.3639 34.4354 9.64478 34.4354Z" fill="#DD390D"/>
<path d="M74.9598 34.1741V20.6111H72.5151V16.7599H74.9598V15.5878C74.9598 13.8241 75.4844 12.4064 76.5338 11.3347C77.5831 10.2631 78.9896 9.72727 80.7533 9.72727H82.6287V13.5785H81.4566C80.1394 13.5785 79.4808 14.2706 79.4808 15.6548V16.7599H83.0306V20.6111H79.4808V34.1741H74.9598ZM86.7887 15.3199C86.0296 15.3199 85.3821 15.0632 84.8463 14.5497C84.3328 14.0138 84.0761 13.3776 84.0761 12.6408C84.0761 11.9264 84.3328 11.3124 84.8463 10.7989C85.3821 10.2631 86.0296 9.99518 86.7887 9.99518C87.5701 9.99518 88.2175 10.2631 88.731 10.7989C89.2445 11.3124 89.5013 11.9264 89.5013 12.6408C89.5013 13.3999 89.2445 14.0362 88.731 14.5497C88.2175 15.0632 87.5701 15.3199 86.7887 15.3199ZM84.5449 34.1741V16.7599H89.0659V34.1741H84.5449ZM90.0653 34.1741L96.5956 25.467L90.4002 16.7599H95.7919L99.3417 22.2856L103.026 16.7599H108.317L102.121 25.534L108.652 34.1741H103.159L99.3752 28.615L95.457 34.1741H90.0653Z" fill="black"/>
<path d="M32.0598 15.8288V18.4177H27.1887C27.8027 18.8488 28.2537 19.5213 28.4055 20.2526H32.0598V22.8913H28.51C28.21 25.1643 26.2352 26.8819 23.7161 27.1413L29.0061 33.5153L29.2131 33.7643H24.6262L24.5813 33.7077L18.7288 26.5358L18.6946 26.4938V24.6745H21.7297C23.3864 24.6745 24.5584 23.9368 24.8391 22.8893H18.72V20.2507H24.8176C24.5592 19.2467 23.5451 18.5622 22.1331 18.5622H18.7073V15.8288H32.0598Z" fill="#DD390D" stroke="#DD390D" stroke-width="0.303981"/>
</svg>
